<?xml version="1.0" encoding="utf-8"?>
<!-- Generator: Adobe Illustrator 16.0.0, SVG Export Plug-In . SVG Version: 6.00 Build 0)  -->
<!DOCTYPE svg PUBLIC "-//W3C//DTD SVG 1.1//EN" "http://www.w3.org/Graphics/SVG/1.1/DTD/svg11.dtd">
<svg version="1.1" id="Layer_1" xmlns="http://www.w3.org/2000/svg" xmlns:xlink="http://www.w3.org/1999/xlink" x="0px" y="0px"
	 width="258.164px" height="173.221px" viewBox="0 0 258.164 173.221" enable-background="new 0 0 258.164 173.221"
	 xml:space="preserve">
<rect fill="#2C2B2A" width="258.164" height="173.221"/>
<g opacity="0.2">
	<g>
		<defs>
			<rect id="SVGID_1_" x="53.262" y="14.791" width="150.084" height="150.084"/>
		</defs>
		<clipPath id="SVGID_2_">
			<use xlink:href="#SVGID_1_"  overflow="visible"/>
		</clipPath>
		<path clip-path="url(#SVGID_2_)" fill="#FFFFFF" d="M158.329,32.937c-0.125,1.352,0.785,2.582,0.482,4.054h0.001
			c1.124-0.998,2.644-0.825,3.752-1.609c1.709-1.21,1.64-2.857,1.707-5.124c0.066-2.249,1.528-5.362,1.553-5.414h0.001
			c-0.031,0.044-1.997,2.869-3.912,4.052C159.983,30.088,158.522,30.852,158.329,32.937"/>
		<path clip-path="url(#SVGID_2_)" fill="#FFFFFF" d="M144.754,53.853c0.428,1.264,0.698,2.374,0.864,3.334
			c-0.011-0.746-0.048-1.516-0.076-2.412c-0.078-2.533,1.567-3.656,3.105-4.427c1.97-0.986,3.373-2.207,4.27-3.146
			c-0.366,1.245-0.721,3.071-0.591,5.27c0.102,1.717-0.048,3.704-2.28,4.902c-0.791,0.425-1.478,0.777-2.127,1.141
			c0.914-0.336,2.01-0.658,3.319-0.919c5.203-1.037,8.316-3.618,7.432-11.365c-0.391-3.411-0.139-6.905,0.141-9.239l0.001-0.002
			c-1.881,1.41-4.778,3.375-7.932,4.744C143.729,44.84,143.05,48.826,144.754,53.853"/>
		<path clip-path="url(#SVGID_2_)" fill="#FFFFFF" d="M182.807,35.327c-0.179,1.238-0.312,2.522-0.367,3.807
			c-0.397,9.06-4.445,11.454-10.609,11.695c-1.55,0.062-2.867,0.232-3.977,0.449c0.812-0.297,1.661-0.576,2.648-0.921
			c2.783-0.968,3.316-3.221,3.515-5.215c0.037-0.406,0.095-0.798,0.16-1.181h-0.004c-0.383,0.062-0.77,0.119-1.181,0.161
			c-1.989,0.198-4.247,0.732-5.215,3.514c-0.34,0.983-0.619,1.833-0.921,2.65c0.222-1.115,0.387-2.428,0.448-3.982
			C167.546,40.14,169.941,36.097,179,35.7C180.286,35.643,181.57,35.507,182.807,35.327"/>
		<path clip-path="url(#SVGID_2_)" fill="#FFFFFF" d="M187.878,53.865c-2.267,0.067-3.914-0.002-5.124,1.707
			c-0.785,1.108-0.61,2.629-1.609,3.753c1.473-0.303,2.703,0.608,4.055,0.482c2.085-0.193,2.848-1.654,4.041-3.584
			c1.182-1.915,4.007-3.88,4.051-3.911C193.242,52.335,190.127,53.798,187.878,53.865"/>
		<path clip-path="url(#SVGID_2_)" fill="#FFFFFF" d="M160.541,66.898c-0.261,1.309-0.582,2.405-0.919,3.319
			c0.365-0.651,0.718-1.336,1.142-2.127c1.198-2.232,3.185-2.382,4.902-2.28c2.198,0.13,4.025-0.225,5.27-0.591h0.001
			c-0.94,0.895-2.16,2.3-3.147,4.269c-0.771,1.538-1.893,3.184-4.426,3.106c-0.896-0.028-1.667-0.066-2.413-0.076
			c0.961,0.166,2.071,0.436,3.335,0.864c5.026,1.703,9.013,1.025,12.118-6.127c1.369-3.153,3.334-6.051,4.744-7.932l-0.002,0.002
			c-2.334,0.279-5.828,0.531-9.239,0.141C164.159,58.58,161.579,61.693,160.541,66.898"/>
		<path clip-path="url(#SVGID_2_)" fill="#FFFFFF" d="M202.759,69.883c-0.775,0.983-1.535,2.026-2.225,3.113
			c-4.874,7.642-9.574,7.694-15.034,4.822c-1.37-0.722-2.599-1.232-3.671-1.601c0.854,0.147,1.733,0.331,2.759,0.529
			c2.891,0.553,4.482-1.133,5.648-2.758c0.236-0.336,0.482-0.647,0.729-0.945c-0.364-0.137-0.729-0.283-1.106-0.453
			c-1.822-0.827-4.038-1.488-6.268,0.434c-0.793,0.68-1.459,1.28-2.125,1.838c0.746-0.855,1.549-1.913,2.38-3.222
			c3.293-5.219,7.388-7.524,15.427-3.339C200.417,68.892,201.597,69.42,202.759,69.883"/>
		<path clip-path="url(#SVGID_2_)" fill="#FFFFFF" d="M197.881,88.471c-1.997-1.075-3.389-1.959-5.291-1.084
			c-1.234,0.568-1.843,1.971-3.27,2.445v0.001c1.427,0.474,2.035,1.878,3.27,2.444c1.902,0.875,3.294-0.008,5.291-1.084
			c1.981-1.066,5.41-1.356,5.465-1.361C203.292,89.828,199.863,89.538,197.881,88.471"/>
		<path clip-path="url(#SVGID_2_)" fill="#FFFFFF" d="M167.69,86.089c-0.88,1.003-1.707,1.792-2.455,2.415
			c0.641-0.381,1.288-0.799,2.051-1.272c2.154-1.334,3.949-0.47,5.386,0.477c1.839,1.212,3.599,1.818,4.859,2.123
			c-1.261,0.306-3.021,0.912-4.859,2.125c-1.436,0.947-3.231,1.811-5.386,0.477c-0.763-0.473-1.41-0.891-2.051-1.271
			c0.748,0.623,1.575,1.412,2.455,2.414c3.501,3.988,7.293,5.395,13.558,0.754c2.759-2.043,5.911-3.572,8.072-4.498
			c-2.161-0.924-5.313-2.453-8.072-4.497C174.982,80.695,171.191,82.102,167.69,86.089"/>
		<path clip-path="url(#SVGID_2_)" fill="#FFFFFF" d="M189.241,123.443c-1.191-1.932-1.956-3.393-4.041-3.584
			c-1.351-0.125-2.581,0.783-4.054,0.48v0.002c0.999,1.123,0.825,2.645,1.609,3.752c1.21,1.709,2.856,1.641,5.124,1.707
			c2.248,0.066,5.361,1.529,5.413,1.553C193.248,127.322,190.423,125.355,189.241,123.443"/>
		<path clip-path="url(#SVGID_2_)" fill="#FFFFFF" d="M164.285,106.283c-1.264,0.428-2.374,0.699-3.334,0.865
			c0.746-0.01,1.517-0.049,2.412-0.076c2.533-0.078,3.656,1.568,4.427,3.105c0.986,1.969,2.207,3.373,3.146,4.27v-0.002
			c-1.245-0.365-3.072-0.719-5.271-0.59c-1.717,0.102-3.704-0.047-4.902-2.279c-0.424-0.791-0.776-1.477-1.141-2.127
			c0.336,0.914,0.658,2.01,0.919,3.318c1.037,5.205,3.618,8.316,11.365,7.432c3.411-0.391,6.905-0.139,9.239,0.143h0.002
			c-1.41-1.881-3.375-4.779-4.744-7.932C173.297,105.26,169.311,104.58,164.285,106.283"/>
		<path clip-path="url(#SVGID_2_)" fill="#FFFFFF" d="M202.759,109.783c-1.162,0.463-2.343,0.986-3.486,1.582
			c-8.039,4.184-12.134,1.879-15.427-3.34c-0.831-1.309-1.634-2.367-2.38-3.221c0.666,0.557,1.332,1.152,2.125,1.836
			c2.229,1.924,4.45,1.262,6.268,0.436c0.378-0.17,0.742-0.316,1.106-0.453c-0.246-0.299-0.492-0.609-0.729-0.945
			c-1.166-1.625-2.758-3.311-5.648-2.758c-1.025,0.193-1.904,0.381-2.759,0.529c1.072-0.369,2.301-0.879,3.671-1.602
			c5.46-2.873,10.16-2.82,15.034,4.822C201.224,107.756,201.984,108.801,202.759,109.783"/>
		<path clip-path="url(#SVGID_2_)" fill="#FFFFFF" d="M182.812,144.34c-1.241-0.18-2.526-0.316-3.812-0.373
			c-9.055-0.398-11.449-4.441-11.695-10.604c-0.057-1.555-0.227-2.873-0.449-3.982c0.303,0.811,0.581,1.666,0.922,2.65
			c0.973,2.781,3.226,3.314,5.215,3.514c0.41,0.041,0.803,0.098,1.186,0.16c-0.066-0.383-0.123-0.775-0.161-1.186
			c-0.198-1.988-0.731-4.242-3.514-5.211c-0.988-0.344-1.838-0.623-2.65-0.92c1.11,0.217,2.429,0.387,3.978,0.449
			c6.164,0.24,10.212,2.635,10.608,11.689C182.497,141.816,182.628,143.102,182.812,144.34"/>
		<path clip-path="url(#SVGID_2_)" fill="#FFFFFF" d="M165.826,154.822L165.826,154.822c-0.023-0.049-1.486-3.164-1.553-5.414
			c-0.068-2.268,0.002-3.914-1.708-5.125c-1.107-0.783-2.628-0.609-3.752-1.609c0.303,1.473-0.608,2.703-0.483,4.055
			c0.194,2.086,1.655,2.85,3.585,4.041C163.829,151.951,165.793,154.775,165.826,154.822"/>
		<path clip-path="url(#SVGID_2_)" fill="#FFFFFF" d="M158.812,142.674c-0.279-2.334-0.531-5.828-0.142-9.238
			c0.886-7.746-2.227-10.326-7.431-11.365c-1.31-0.262-2.405-0.582-3.32-0.918c0.651,0.363,1.337,0.715,2.127,1.141
			c2.233,1.197,2.382,3.184,2.281,4.902c-0.13,2.197,0.225,4.025,0.59,5.27c-0.896-0.939-2.3-2.16-4.269-3.146
			c-1.537-0.771-3.184-1.893-3.105-4.426c0.028-0.896,0.066-1.668,0.076-2.412c-0.166,0.959-0.437,2.07-0.864,3.334
			c-1.704,5.025-1.025,9.012,6.126,12.117c3.153,1.369,6.051,3.334,7.932,4.744L158.812,142.674z"/>
		<path clip-path="url(#SVGID_2_)" fill="#FFFFFF" d="M130.75,154.119c-0.567-1.232-1.971-1.844-2.445-3.27
			c-0.474,1.426-1.878,2.037-2.444,3.27c-0.875,1.902,0.008,3.295,1.083,5.291c1.066,1.98,1.356,5.408,1.361,5.465
			c0.004-0.053,0.294-3.482,1.361-5.465C130.742,157.414,131.625,156.021,130.75,154.119"/>
		<path clip-path="url(#SVGID_2_)" fill="#FFFFFF" d="M132.047,129.219c-1.003-0.879-1.792-1.707-2.415-2.455
			c0.382,0.641,0.8,1.289,1.272,2.051c1.334,2.154,0.47,3.951-0.477,5.387c-1.213,1.838-1.818,3.598-2.123,4.859
			c-0.307-1.262-0.912-3.021-2.124-4.859c-0.947-1.436-1.812-3.232-0.478-5.387c0.473-0.762,0.892-1.41,1.272-2.051
			c-0.623,0.748-1.412,1.576-2.415,2.455c-3.988,3.502-5.395,7.293-0.753,13.559c2.043,2.758,3.571,5.91,4.497,8.072
			c0.924-2.162,2.452-5.314,4.496-8.072C137.442,136.512,136.036,132.721,132.047,129.219"/>
		<path clip-path="url(#SVGID_2_)" fill="#FFFFFF" d="M149.838,160.805c-0.596,1.143-1.119,2.32-1.582,3.486
			c-0.983-0.779-2.027-1.535-3.113-2.23c-7.647-4.869-7.699-9.568-4.823-15.029c0.723-1.373,1.233-2.598,1.597-3.67
			c-0.146,0.855-0.331,1.729-0.523,2.754c-0.553,2.896,1.133,4.482,2.758,5.648c0.335,0.242,0.642,0.488,0.945,0.732
			c0.137-0.363,0.282-0.732,0.453-1.105c0.821-1.822,1.487-4.043-0.439-6.271c-0.68-0.789-1.275-1.455-1.833-2.125
			c0.854,0.744,1.908,1.553,3.222,2.381C151.718,148.666,154.023,152.762,149.838,160.805"/>
		<path clip-path="url(#SVGID_2_)" fill="#FFFFFF" d="M98.279,146.729c0.125-1.352-0.785-2.582-0.482-4.053h-0.001
			c-1.124,0.998-2.644,0.824-3.752,1.609c-1.709,1.209-1.64,2.855-1.707,5.123c-0.066,2.25-1.529,5.363-1.554,5.414h0.001
			c0.032-0.047,1.997-2.869,3.911-4.053C96.625,149.578,98.085,148.814,98.279,146.729"/>
		<path clip-path="url(#SVGID_2_)" fill="#FFFFFF" d="M111.853,125.814c-0.428-1.264-0.697-2.375-0.863-3.334
			c0.01,0.746,0.048,1.516,0.075,2.412c0.078,2.533-1.567,3.656-3.105,4.426c-1.969,0.986-3.373,2.207-4.269,3.146h-0.001
			c0.366-1.244,0.722-3.072,0.592-5.27c-0.103-1.717,0.048-3.705,2.279-4.902c0.791-0.426,1.478-0.777,2.127-1.141
			c-0.914,0.336-2.01,0.658-3.318,0.918c-5.204,1.037-8.317,3.619-7.433,11.365c0.392,3.412,0.14,6.906-0.141,9.24l-0.001,0.002
			c1.881-1.41,4.779-3.375,7.931-4.744C112.878,134.826,113.557,130.84,111.853,125.814"/>
		<path clip-path="url(#SVGID_2_)" fill="#FFFFFF" d="M116.292,147.031c-0.723-1.375-1.237-2.598-1.601-3.67
			c0.146,0.855,0.33,1.729,0.524,2.754c0.553,2.895-1.129,4.482-2.759,5.648c-0.331,0.242-0.643,0.486-0.939,0.732l-0.011,0.039
			l0.006-0.039c-0.132-0.363-0.279-0.732-0.449-1.104c-0.826-1.824-1.492-4.045,0.435-6.273c0.681-0.789,1.28-1.455,1.832-2.121
			c-0.85,0.742-1.907,1.549-3.221,2.375c-5.215,3.293-7.524,7.389-3.339,15.432c0.595,1.145,1.124,2.324,1.582,3.486l0.018-0.049
			l-0.013,0.049c0.978-0.779,2.026-1.535,3.112-2.229C119.112,157.191,119.164,152.492,116.292,147.031"/>
		<path clip-path="url(#SVGID_2_)" fill="#FFFFFF" d="M68.729,125.801c2.267-0.066,3.914,0.002,5.124-1.707
			c0.785-1.107,0.611-2.629,1.61-3.752c-1.474,0.303-2.703-0.607-4.056-0.482c-2.085,0.193-2.848,1.654-4.04,3.584
			c-1.183,1.914-4.007,3.881-4.052,3.91C63.367,127.33,66.48,125.869,68.729,125.801"/>
		<path clip-path="url(#SVGID_2_)" fill="#FFFFFF" d="M96.067,112.768c0.261-1.309,0.582-2.404,0.919-3.318
			c-0.365,0.65-0.716,1.336-1.142,2.127c-1.198,2.232-3.185,2.383-4.902,2.279c-2.198-0.129-4.025,0.227-5.27,0.592
			c0.939-0.895,2.159-2.301,3.146-4.27c0.771-1.537,1.893-3.184,4.426-3.105c0.897,0.027,1.667,0.066,2.413,0.076
			c-0.96-0.166-2.071-0.436-3.334-0.863c-5.027-1.703-9.013-1.025-12.119,6.127c-1.369,3.152-3.334,6.049-4.744,7.93h0.002
			c2.333-0.281,5.828-0.531,9.239-0.141C92.449,121.086,95.029,117.973,96.067,112.768"/>
		<path clip-path="url(#SVGID_2_)" fill="#FFFFFF" d="M89.75,129.381c-0.217,1.115-0.387,2.432-0.448,3.98
			c-0.241,6.164-2.636,10.207-11.695,10.605c-1.285,0.057-2.57,0.193-3.808,0.373c0.18-1.238,0.316-2.523,0.368-3.809
			c0.397-9.059,4.445-11.453,10.609-11.693c1.549-0.063,2.867-0.232,3.977-0.449c-0.812,0.297-1.661,0.576-2.649,0.92
			c-2.782,0.969-3.315,3.223-3.509,5.215c-0.043,0.406-0.1,0.799-0.161,1.182c0.383-0.063,0.77-0.117,1.181-0.16
			c1.993-0.195,4.247-0.732,5.215-3.516C89.169,131.047,89.453,130.197,89.75,129.381"/>
		<path clip-path="url(#SVGID_2_)" fill="#FFFFFF" d="M58.726,91.195c1.997,1.074,3.39,1.959,5.292,1.084
			c1.233-0.568,1.844-1.971,3.27-2.445v-0.001c-1.426-0.474-2.036-1.877-3.271-2.445c-1.901-0.875-3.294,0.009-5.291,1.084
			c-1.98,1.067-5.407,1.357-5.465,1.362h0.001C53.319,89.838,56.746,90.129,58.726,91.195"/>
		<path clip-path="url(#SVGID_2_)" fill="#FFFFFF" d="M88.918,93.576c0.88-1.002,1.707-1.791,2.456-2.414
			c-0.643,0.381-1.289,0.799-2.052,1.271c-2.154,1.334-3.95,0.471-5.387-0.477c-1.839-1.212-3.598-1.818-4.858-2.123
			c1.261-0.306,3.02-0.912,4.858-2.124c1.437-0.947,3.232-1.811,5.387-0.476c0.763,0.472,1.409,0.89,2.052,1.271
			c-0.749-0.623-1.576-1.412-2.456-2.415c-3.501-3.988-7.292-5.394-13.559-0.753c-2.759,2.043-5.91,3.572-8.071,4.497
			c2.161,0.924,5.313,2.453,8.071,4.496C81.626,98.971,85.417,97.564,88.918,93.576"/>
		<path clip-path="url(#SVGID_2_)" fill="#FFFFFF" d="M75.141,104.809c-0.746,0.85-1.549,1.908-2.376,3.217
			c-3.292,5.219-7.392,7.523-15.431,3.34c-1.144-0.59-2.324-1.119-3.486-1.582c0.774-0.984,1.535-2.027,2.225-3.113
			c4.875-7.643,9.574-7.693,15.034-4.822c1.375,0.723,2.599,1.232,3.67,1.602c-0.854-0.148-1.732-0.332-2.758-0.529
			c-2.891-0.553-4.482,1.133-5.645,2.758c-0.241,0.336-0.486,0.646-0.732,0.945c0.364,0.137,0.729,0.283,1.105,0.453
			c1.823,0.826,4.039,1.488,6.272-0.434C73.809,105.961,74.475,105.361,75.141,104.809"/>
		<path clip-path="url(#SVGID_2_)" fill="#FFFFFF" d="M67.368,56.224c1.191,1.93,1.954,3.391,4.041,3.584
			c1.351,0.125,2.58-0.785,4.054-0.482c-0.999-1.124-0.825-2.645-1.609-3.753c-1.21-1.709-2.856-1.64-5.125-1.707
			c-2.249-0.067-5.364-1.53-5.413-1.553C63.361,52.344,66.185,54.31,67.368,56.224"/>
		<path clip-path="url(#SVGID_2_)" fill="#FFFFFF" d="M92.323,73.382c1.265-0.428,2.374-0.698,3.334-0.864
			c-0.745,0.01-1.516,0.048-2.411,0.076c-2.533,0.078-3.656-1.568-4.428-3.106c-0.985-1.969-2.207-3.373-3.146-4.269v0.001
			c1.245,0.365,3.072,0.72,5.27,0.59c1.718-0.102,3.704,0.048,4.902,2.28c0.425,0.791,0.777,1.477,1.141,2.127
			c-0.336-0.914-0.657-2.01-0.919-3.319c-1.037-5.204-3.618-8.317-11.364-7.432c-3.411,0.391-6.905,0.139-9.239-0.141l-0.002-0.001
			c1.41,1.881,3.375,4.779,4.744,7.931C83.311,74.408,87.297,75.086,92.323,73.382"/>
		<path clip-path="url(#SVGID_2_)" fill="#FFFFFF" d="M72.019,76.747c1.025-0.194,1.904-0.378,2.758-0.529
			c-1.072,0.368-2.295,0.879-3.67,1.601c-5.46,2.872-10.16,2.82-15.034-4.822c-0.689-1.087-1.451-2.131-2.225-3.113
			c1.162-0.463,2.343-0.987,3.486-1.583c8.038-4.184,12.139-1.879,15.427,3.34c0.831,1.313,1.634,2.366,2.38,3.221
			c-0.666-0.557-1.332-1.152-2.121-1.837c-2.234-1.923-4.449-1.261-6.272-0.435c-0.378,0.17-0.741,0.317-1.105,0.454
			c0.246,0.297,0.492,0.609,0.731,0.945C67.536,75.613,69.128,77.3,72.019,76.747"/>
		<path clip-path="url(#SVGID_2_)" fill="#FFFFFF" d="M83.615,44.122c1.989,0.198,4.246,0.732,5.215,3.514
			c0.341,0.983,0.618,1.838,0.922,2.65c-0.223-1.11-0.389-2.428-0.449-3.982C89.061,40.14,86.662,36.097,77.607,35.7
			c-1.285-0.057-2.57-0.194-3.807-0.373l0.01,0.015l-0.015-0.015c0.184,1.237,0.315,2.522,0.373,3.812
			c0.396,9.055,4.444,11.449,10.608,11.69c1.549,0.062,2.867,0.232,3.978,0.449c-0.813-0.298-1.663-0.576-2.65-0.921
			c-2.782-0.968-3.316-3.221-3.514-5.21c-0.038-0.411-0.095-0.803-0.161-1.186h0.005C82.817,44.023,83.204,44.079,83.615,44.122"/>
		<path clip-path="url(#SVGID_2_)" fill="#FFFFFF" d="M90.783,24.845L90.783,24.845c0.022,0.048,1.487,3.164,1.553,5.413
			c0.068,2.268-0.002,3.915,1.708,5.125c1.108,0.784,2.628,0.61,3.752,1.609c-0.303-1.473,0.608-2.703,0.483-4.054
			c-0.194-2.086-1.655-2.849-3.585-4.041C92.78,27.714,90.814,24.889,90.783,24.845"/>
		<path clip-path="url(#SVGID_2_)" fill="#FFFFFF" d="M97.795,36.992c0.28,2.334,0.532,5.828,0.143,9.239
			c-0.886,7.747,2.227,10.327,7.431,11.365c1.31,0.261,2.405,0.583,3.32,0.919c-0.651-0.364-1.337-0.716-2.127-1.141
			c-2.233-1.198-2.382-3.185-2.281-4.902c0.13-2.199-0.225-4.025-0.59-5.27c0.895,0.939,2.3,2.159,4.268,3.146
			c1.538,0.771,3.185,1.893,3.106,4.426c-0.028,0.897-0.066,1.667-0.076,2.413c0.166-0.96,0.436-2.071,0.864-3.334
			c1.704-5.026,1.024-9.013-6.126-12.119c-3.153-1.369-6.051-3.334-7.933-4.744L97.795,36.992z"/>
		<path clip-path="url(#SVGID_2_)" fill="#FFFFFF" d="M125.859,25.547c0.567,1.233,1.971,1.843,2.445,3.27
			c0.474-1.427,1.878-2.037,2.444-3.27c0.875-1.903-0.008-3.294-1.083-5.291c-1.066-1.981-1.356-5.408-1.361-5.465
			c-0.005,0.057-0.295,3.484-1.361,5.465C125.867,22.253,124.984,23.644,125.859,25.547"/>
		<path clip-path="url(#SVGID_2_)" fill="#FFFFFF" d="M124.56,50.448c1.003,0.88,1.792,1.707,2.415,2.455
			c-0.381-0.641-0.799-1.288-1.271-2.051c-1.334-2.154-0.47-3.95,0.477-5.386c1.212-1.839,1.818-3.598,2.124-4.859
			c0.306,1.261,0.911,3.02,2.123,4.859c0.947,1.436,1.812,3.232,0.478,5.386c-0.474,0.763-0.892,1.41-1.272,2.051
			c0.623-0.748,1.412-1.575,2.415-2.455c3.988-3.501,5.395-7.292,0.753-13.558c-2.043-2.759-3.572-5.911-4.496-8.072
			c-0.925,2.161-2.454,5.313-4.497,8.072C119.167,43.156,120.573,46.947,124.56,50.448"/>
		<path clip-path="url(#SVGID_2_)" fill="#FFFFFF" d="M116.292,32.634c-0.723,1.374-1.237,2.603-1.601,3.675
			c0.146-0.855,0.33-1.734,0.524-2.759c0.553-2.895-1.129-4.482-2.759-5.649c-0.331-0.241-0.643-0.486-0.944-0.732
			c-0.138,0.364-0.284,0.732-0.449,1.105c-0.826,1.824-1.492,4.044,0.435,6.273c0.681,0.789,1.28,1.455,1.832,2.126
			c-0.85-0.747-1.907-1.555-3.221-2.381c-5.219-3.292-7.524-7.388-3.339-15.432c0.595-1.143,1.119-2.319,1.582-3.486
			c0.982,0.78,2.026,1.536,3.113,2.23C119.112,22.475,119.164,27.174,116.292,32.634"/>
		<path clip-path="url(#SVGID_2_)" fill="#FFFFFF" d="M146.499,34.292c-1.313,0.827-2.371,1.634-3.221,2.381
			c0.552-0.671,1.151-1.337,1.831-2.126c1.928-2.229,1.262-4.449,0.436-6.273c-0.17-0.373-0.313-0.741-0.449-1.105
			c-0.302,0.246-0.608,0.491-0.945,0.732c-1.624,1.167-3.311,2.754-2.758,5.649c0.194,1.025,0.378,1.904,0.524,2.759
			c-0.363-1.072-0.878-2.3-1.596-3.675c-2.878-5.46-2.825-10.16,4.821-15.03c1.087-0.694,2.131-1.45,3.113-2.229
			c0.458,1.166,0.987,2.342,1.582,3.486C154.022,26.905,151.717,31,146.499,34.292"/>
	</g>
</g>
<polygon fill="#DB5C1E" points="20.552,102.01 10.661,77.657 14.348,77.657 22.431,98.607 30.478,77.657 32.587,77.657 
	22.892,102.01 "/>
<rect x="48.239" y="77.656" fill="#DB5C1E" width="3.475" height="24.354"/>
<rect x="199.897" y="77.656" fill="#DB5C1E" width="3.475" height="24.354"/>
<polygon fill="#DB5C1E" points="69.439,77.656 72.913,77.656 72.736,100.451 82.52,100.359 82.52,102.01 69.439,102.01 "/>
<polygon fill="#DB5C1E" points="98.508,77.656 101.982,77.656 101.805,100.451 111.589,100.359 111.589,102.01 98.508,102.01 "/>
<path fill="#DB5C1E" d="M173.769,78.507c-1.466,0-2.83,0.225-4.094,0.674c-1.265,0.449-2.364,1.14-3.297,2.074
	c-0.935,0.933-1.666,2.115-2.198,3.545s-0.797,3.125-0.797,5.087c0,1.725,0.235,3.285,0.708,4.68s1.164,2.57,2.074,3.527
	s2.021,1.695,3.333,2.215c1.311,0.52,2.794,0.779,4.449,0.779c0.495,0,1.015-0.021,1.559-0.07c0.544-0.047,1.07-0.117,1.578-0.211
	c0.508-0.096,0.979-0.215,1.418-0.355c0.437-0.143,1.117-0.496,1.117-0.496l-0.107-9.146h3.227v10.021c0,0-1.224,0.432-1.968,0.631
	c-0.744,0.201-1.537,0.367-2.376,0.496s-1.678,0.248-2.517,0.355c-0.838,0.105-1.602,0.16-2.286,0.16c-2.104,0-4-0.256-5.69-0.764
	c-1.689-0.508-3.125-1.293-4.307-2.357c-1.182-1.063-2.092-2.387-2.729-3.971c-0.639-1.582-0.957-3.414-0.957-5.494
	c0-2.009,0.33-3.799,0.992-5.371c0.661-1.571,1.596-2.901,2.801-3.988s2.665-1.915,4.378-2.482c1.714-0.567,3.61-0.85,5.689-0.85
	c5.42,0,9.04,2.055,9.04,2.055l-0.814,2.73C181.995,81.981,179.357,78.507,173.769,78.507"/>
<path fill="#DB5C1E" d="M219.394,89.886c0-2.009,0.325-3.798,0.975-5.371c0.65-1.571,1.561-2.9,2.73-3.988
	c1.17-1.086,2.569-1.914,4.2-2.482c1.632-0.567,3.415-0.85,5.354-0.85c1.961,0,3.758,0.283,5.389,0.85
	c1.63,0.568,3.031,1.396,4.201,2.482c1.169,1.088,2.079,2.417,2.729,3.988c0.649,1.573,0.975,3.362,0.975,5.371
	c0,2.008-0.325,3.799-0.975,5.372c-0.65,1.572-1.561,2.9-2.729,3.988c-1.17,1.088-2.571,1.896-4.201,2.428
	c-1.631,0.531-3.428,0.797-5.389,0.797c-1.938,0-3.722-0.266-5.354-0.797c-1.631-0.531-3.03-1.34-4.2-2.428s-2.08-2.416-2.73-3.988
	C219.719,93.686,219.394,91.895,219.394,89.886 M242.473,89.886c0-1.961-0.248-3.657-0.744-5.087
	c-0.497-1.43-1.188-2.611-2.075-3.545c-0.886-0.933-1.926-1.625-3.119-2.074c-1.194-0.448-2.488-0.674-3.882-0.674
	c-1.371,0-2.653,0.226-3.846,0.674c-1.194,0.449-2.234,1.141-3.12,2.074c-0.887,0.934-1.577,2.115-2.074,3.545
	c-0.496,1.43-0.744,3.126-0.744,5.087c0,1.961,0.248,3.659,0.744,5.086c0.497,1.432,1.188,2.613,2.074,3.545
	c0.886,0.936,1.926,1.627,3.12,2.074c1.192,0.451,2.475,0.674,3.846,0.674c1.394,0,2.688-0.223,3.882-0.674
	c1.193-0.447,2.233-1.139,3.119-2.074c0.887-0.932,1.578-2.113,2.075-3.545C242.225,93.545,242.473,91.848,242.473,89.886"/>
<path fill="#DB5C1E" d="M137.282,77.656h-2.34l-5.224,13.122c-5.562-1.417-9.694-0.943-9.694-0.943c3.451,0,6.589,0.699,9.37,1.756
	l-4.146,10.422h2.107l3.732-9.717c7.831,3.559,12.398,9.717,12.398,9.717h3.687L137.282,77.656z M131.478,91.275l3.925-10.215
	l5.892,15.27C137.963,93.816,134.56,92.244,131.478,91.275"/>
</svg>
